<svg width="1200" height="800" viewBox="0 0 1200 800" fill="none" xmlns="http://www.w3.org/2000/svg">
  <rect width="1200" height="800" fill="#EEF4FF"/>
  <rect y="574" width="1200" height="226" fill="#CFE3FF"/>
  <path d="M146 604C210 488 318 430 470 430C623 430 733 488 800 604" fill="#D7EAFE"/>
  <rect x="210" y="222" width="528" height="352" rx="28" fill="#FFFFFF" stroke="#274C77" stroke-width="18"/>
  <rect x="258" y="280" width="132" height="110" rx="16" fill="#93C5FD"/>
  <rect x="430" y="280" width="132" height="110" rx="16" fill="#93C5FD"/>
  <rect x="602" y="280" width="88" height="238" rx="16" fill="#F4C095"/>
  <path d="M186 262L474 118L762 262" stroke="#2563EB" stroke-width="28" stroke-linecap="round" stroke-linejoin="round"/>
  <rect x="820" y="264" width="244" height="320" rx="24" fill="#FFFFFF" stroke="#274C77" stroke-width="18"/>
  <rect x="858" y="326" width="168" height="114" rx="18" fill="#BFDBFE"/>
  <text x="942" y="520" text-anchor="middle" fill="#0F172A" font-family="Arial, sans-serif" font-size="38" font-weight="700">FOR RENT</text>
  <text x="942" y="566" text-anchor="middle" fill="#2563EB" font-family="Arial, sans-serif" font-size="24">Modern city apartment</text>
</svg>